<svg xmlns="http://www.w3.org/2000/svg" viewBox="0 0 767.1 249.4">
	<title>Unity Foundation</title>
	<defs>
		<linearGradient id="a" x1="52.3" x2="212.5" y1="502.2" y2="342" gradientTransform="translate(0 -250)" gradientUnits="userSpaceOnUse">
			<stop offset="0" stop-color="#38b6ff"/>
			<stop offset="1" stop-color="#025984"/>
		</linearGradient>
		<linearGradient id="b" x1="39.8" x2="109.6" y1="344.6" y2="465.4" gradientTransform="translate(0 -250)" gradientUnits="userSpaceOnUse">
			<stop offset="0" stop-color="#38b6ff"/>
			<stop offset="1" stop-color="#025984"/>
		</linearGradient>
		<linearGradient id="c" x1="1800.9" x2="1707.1" y1="472" y2="640.3" gradientTransform="rotate(-180 979.5 344.4)" gradientUnits="userSpaceOnUse">
			<stop offset="0" stop-color="#3d8244"/>
			<stop offset="1" stop-color="#7ed957"/>
		</linearGradient>
		<linearGradient id="d" x1="1747.1" x2="1647.4" y1="579.4" y2="476.1" gradientTransform="rotate(-180 979.5 344.4)" gradientUnits="userSpaceOnUse">
			<stop offset="0" stop-color="#3d8244"/>
			<stop offset="1" stop-color="#7ed957"/>
		</linearGradient>
	</defs>
	<path fill="url(#a)" d="M268.4 152.5a121 121 0 0 0-7.9-1.8 82.5 82.5 0 0 0-25.4.7 113.5 113.5 0 0 0-29.5 10.3 301 301 0 0 0-18.9 10.2l-17.6 10.8-22.6 14.2c-2.6 1.6-15.1 8.4-15.1 8.4-6.1 3.2-12.4 6-18.4 8.1-9.6 5.1-24.8 6.6-42.2 6.5-22.5-6.6-57.5-18-70-43.4a84.7 84.7 0 0 0 86 72.9h.7c10.2.3 23.6-3.7 28-5 4.5-1.4 11.9-4.5 17.9-7.5 6-3 21.2-12.5 27.4-17.3l14.5-11.3 22.2-18.4c5.2-4.3 14.2-11.2 19.4-15a121.4 121.4 0 0 1 22.3-13c2.4-1.1 4.7-1.9 7.9-3.1s7.9-2.1 9.9-2.5c2.1-.5 3.3-.5 6.9-.9 3.5-.5 12.2.2 12.2.2s-5.4-2.5-7.7-3.1Z"/>
	<path fill="url(#b)" d="M72.6 221.3c17.8.1 30.9-2.7 40.5-7.9-8.2 3-15.8 4.9-21.3 5.1h-1.7l-3.2.1a58 58 0 0 1-57.2-58.2 63 63 0 0 1 60.7-62.1h3c9.4-.2 19.9 1.6 28.9 5.7 5 1.9 9.7 4.4 13.6 7.3a70 70 0 0 0-51.3-27.4l-1.1-.1h-.6l-4-.1C31.8 84.7 1 122.9 0 163.8a78 78 0 0 0 .8 12.7 85 85 0 0 0 71.8 44.8Z"/>
	<path fill="url(#c)" d="m61.8 180.5 8.1 1.8a88.6 88.6 0 0 0 26.3-.7c5.8-.9 15.1-4 18.3-5.2 3.2-1.1 6.9-2.7 12.3-5.1 5.4-2.4 17.4-8.9 19.6-10.2l18.2-10.8 23.5-14.2c2.7-1.6 15.7-8.4 15.7-8.4 6.3-3.2 12.9-6 19.1-8.1 10-5.1 23.8-5.7 41.8-7.1 24.3 4.2 61.5 18.6 74.5 44A86.8 86.8 0 0 0 250 83.6h-.7c-10.6-.3-24.4 3.7-29.1 5a157.2 157.2 0 0 0-47 24.8l-15 11.3-23 18.4c-5.4 4.3-14.7 11.2-20.2 15s-9.4 6.2-12.7 7.9l-10.4 5.1c-2.5 1.1-4.9 1.9-8.2 3.1a93.5 93.5 0 0 1-10.3 2.5c-2.1.5-3.5.5-7.1.9-3.7.5-12.6-.2-12.6-.2s5.7 2.5 8.1 3.1Z"/>
	<path fill="url(#d)" d="M264.8 111.7c-18.4-.1-32 2.7-42 7.9 8.5-3 16.4-4.9 22.1-5.1h1.8l3.3-.1c32.5 0 60 26.9 59.3 58.2a64 64 0 0 1-62.9 62.1h-3.1c-9.7.2-20.6-1.6-29.9-5.7-5.2-1.9-10-4.4-14.1-7.3a72.7 72.7 0 0 0 53 27.4l1.1.1h.6l4.2.1a82.1 82.1 0 0 0 81-92.8 88.5 88.5 0 0 0-74.4-44.8Z"/>
	<path fill="#38b6ff" d="M77.8 0c-19 0-34.3 15.2-34.3 34.3 0 19 15.2 34.3 34.3 34.3s34.3-15.2 34.3-34.3S96.8 0 77.8 0"/>
	<path fill="#7ed957" d="M262.9 0c-19 0-34.3 15.2-34.3 34.3 0 19 15.2 34.3 34.3 34.3s34.3-15.2 34.3-34.3S282 0 262.9 0"/>
	<path fill="#2c3e50" d="m683.7 194.6.6 9.5h-1l-.2-4.1c0-1.2-.2-2.6-.1-3.7l-.8 3.3-1.2 4.4h-.7l-1-4.2-.9-3.5-.1 3.8-.2 4h-1l.6-9.5h1.2l1 4.3.8 3.3.8-3.3 1-4.3h1.2Zm-11.9 1h1.8v8.5h1v-8.5h1.8v-1h-4.6v1Zm-142.4-31.2h2.7v39.7h-2.4v-6.3c-.5 1.2-1 2.2-1.6 3.1a8.5 8.5 0 0 1-3.7 2.8c-1.9.4-3.5.8-5.2.8a11.7 11.7 0 0 1-10.7-6.6c-1-2.1-1.5-4.6-1.5-7.6s.5-5.5 1.7-7.7c1.2-2.1 2.7-3.7 4.6-4.8 1.9-1.2 4-1.7 6.3-1.7a9.9 9.9 0 0 1 9.8 6.5v-18.2Zm-.3 25.9c0-2.4-.4-4.5-1.3-6.2a9.4 9.4 0 0 0-3.3-4 9.2 9.2 0 0 0-5-1.4c-3.1 0-5.5 1-7.4 3.2-1.8 2.1-2.7 5-2.7 8.6s.9 6.4 2.7 8.6a10 10 0 0 0 7.4 3 8.5 8.5 0 0 0 8.3-5.5c.8-1.8 1.3-4 1.3-6.3ZM493 177.5c-1.5-.8-3.3-1.2-5.4-1.2-1.6 0-3.2.3-4.6.8a9.7 9.7 0 0 0-5.6 5.1l-.2-5.5h-2.4v27.1h-.1v.1h2.8v-15.3c0-2.1.5-3.9 1.4-5.4a10 10 0 0 1 8.4-4.5c2.5 0 4.4.7 5.8 2.1 1.4 1.5 2.2 3.6 2.2 6.6v16.7h2.7v-17.6c0-2.4-.4-4.2-1.3-5.7a9.8 9.8 0 0 0-3.7-3.3Zm-62.5 5.3c1.2 2.1 1.7 4.6 1.7 7.6s-.5 5.5-1.7 7.6a12.8 12.8 0 0 1-4.6 4.9 12.4 12.4 0 0 1-6.7 1.7 12.2 12.2 0 0 1-11.3-6.6 15 15 0 0 1-1.7-7.6c0-3 .5-5.5 1.7-7.6a12.2 12.2 0 0 1 11.3-6.6 12.2 12.2 0 0 1 11.3 6.6Zm-1 7.5c0-2.4-.4-4.6-1.3-6.3-.9-1.8-2.1-3.1-3.6-4.1a12 12 0 0 0-5.4-1.4c-2.1 0-3.9.5-5.4 1.4a9.7 9.7 0 0 0-3.6 4.1c-.9 1.8-1.3 3.9-1.3 6.3s.4 4.5 1.3 6.3c.9 1.8 2.1 3.1 3.6 4.1 1.5.9 3.3 1.4 5.4 1.4s3.9-.5 5.4-1.4a9.7 9.7 0 0 0 3.6-4.1 14 14 0 0 0 1.3-6.3Zm31.6 2.2a9.3 9.3 0 0 1-2.5 6.8c-.8.9-1.8 1.6-3 2.1a11 11 0 0 1-4 .8c-2.6 0-4.3-.6-5.8-1.9-1.5-1.3-2.1-3.4-2.1-6.2v-17.3H441v18c0 2.2.4 4.1 1.3 5.5.8 1.4 2 2.6 3.5 3.2a12.7 12.7 0 0 0 11.6-.9 9 9 0 0 0 3.9-4.5l.1 5.7h2.4v-27.1h-2.7v15.8Zm-47.4-40.9c13 0 22.9-3.3 29.8-10 6.9-6.7 10.4-16.6 10.4-29.7V47.7h-12.1v61.1c0 10.6-2.3 18.6-6.8 23.6s-11.6 7.6-21.1 7.6-16.6-2.6-21.1-7.6c-4.5-5.1-6.8-12.9-6.8-23.6V47.7h-12.5v64.2c0 13.1 3.5 23 10.5 29.7 7 6.7 16.9 10 29.7 10Zm-35.1 52.5h2.7v-17h17.2v-2.6h-17.2v-13.9H403v-2.5h-24.4v36Zm163.7-54h12.5v-49.7c0-6.7-1.4-12.2-4.1-16.6a25.8 25.8 0 0 0-10.9-9.8 34.5 34.5 0 0 0-15.2-3.2c-4 0-7.6.6-11.4 1.7a23.8 23.8 0 0 0-14.7 11.8l-.7-11.9h-10.9V150h12.3v-41.2c0-6.6 1.2-11.8 3.6-15.8a22 22 0 0 1 9.2-8.5 26 26 0 0 1 11.2-2.7c5.4 0 9.9 1.7 13.6 5 3.7 3.5 5.5 9.4 5.5 18v45.3Zm22.8 51.6c.8 0 1.4-.1 1.9-.4l-.1 2.2c-.6.4-1.4.5-2.4.5-.8 0-1.7-.1-2.3-.5-.8-.4-1.3-.9-1.8-1.7-.4-.7-.5-1.5-.6-2.4-.3.6-.8 1.2-1.4 1.8-1.2 1-2.4 1.8-3.9 2.3a13.4 13.4 0 0 1-9 0c-1.3-.5-2.4-1.3-3.2-2.3s-1.2-2.3-1.2-3.9c0-2.1.6-3.7 2.1-4.9 1.4-1.3 3.2-2.1 5.8-2.6l10.8-2.1V186h-.2c0-2.3-.6-4.2-1.9-5.5-1.3-1.3-3.1-1.9-5.4-1.9-2.1 0-3.9.4-5.3 1.3a7.6 7.6 0 0 0-3.3 4.4l-2.2-1.4a9.6 9.6 0 0 1 4-5 14.3 14.3 0 0 1 12.2-.8c1.5.6 2.7 1.8 3.5 3.1.8 1.4 1.3 3.1 1.3 5.1v13.6c0 1.9.9 2.8 2.6 2.8Zm-5.3-11.7-9.4 1.8c-2.2.4-3.7 1-4.8 1.9-1 .8-1.5 1.9-1.5 3.5 0 1.5.5 2.7 1.7 3.5 1.2.9 2.7 1.3 4.8 1.3 1 0 2.1-.1 3.2-.4 1-.3 2.1-.8 3-1.4s1.7-1.4 2.2-2.4c.5-.9.8-2.2.8-3.5V190Zm71.2-7.2c1.2 2.1 1.7 4.6 1.7 7.6s-.5 5.5-1.7 7.6a12.8 12.8 0 0 1-4.6 4.9 12.4 12.4 0 0 1-6.7 1.7 12.2 12.2 0 0 1-11.3-6.6 15 15 0 0 1-1.7-7.6c0-3 .5-5.5 1.7-7.6a12.2 12.2 0 0 1 11.3-6.6 12.2 12.2 0 0 1 11.3 6.6Zm-1 7.5c0-2.4-.4-4.6-1.3-6.3-.9-1.8-2.1-3.1-3.6-4.1a12 12 0 0 0-5.4-1.4c-2.1 0-3.9.5-5.4 1.4a9.7 9.7 0 0 0-3.6 4.1c-.9 1.8-1.3 3.9-1.3 6.3s.4 4.5 1.3 6.3 2.1 3.1 3.6 4.1c1.5.9 3.3 1.4 5.4 1.4s3.9-.5 5.4-1.4c1.5-.9 2.7-2.3 3.6-4.1s1.3-3.9 1.3-6.3ZM593.9 38.7c-2.8 0-5.1.9-6.8 2.6-1.7 1.8-2.6 4-2.6 6.8s.9 5.1 2.6 6.8c1.8 1.7 4 2.6 6.8 2.6s5-.8 6.8-2.6c1.7-1.8 2.6-4 2.6-6.8s-.9-5.1-2.6-6.8a9.4 9.4 0 0 0-6.8-2.6ZM754 72.5l-18.1 49.1-5.7 15.4-4.8-13.9L706 72.5h-14.1l24.7 59 7.7 18.5-4 10.1c-2.1 5.1-4.2 8.4-6.6 10.1a13.2 13.2 0 0 1-7.6 2.4 20.1 20.1 0 0 1-13.5-5.4l-3.5 10.9a27.3 27.3 0 0 0 17.6 5.4c3.7 0 7.1-.6 9.9-1.9 2.8-1.4 5.4-3.4 7.7-6.4s4.5-7.1 6.4-12.1l36.4-90.7-13.1.1Zm-94 105c-1.5-.8-3.3-1.2-5.4-1.2-1.6 0-3.2.3-4.6.8a9.7 9.7 0 0 0-5.6 5.1l-.2-5.5h-2.4v27.1h-.1v.1h2.8v-15.3c0-2.1.5-3.9 1.4-5.4a10 10 0 0 1 8.4-4.5c2.5 0 4.4.7 5.8 2.1 1.4 1.5 2.2 3.6 2.2 6.6v16.7h2.7v-17.6c0-2.4-.4-4.2-1.3-5.7a9.8 9.8 0 0 0-3.7-3.3Zm-17.2-34.6c2.1 3.1 4.8 5.3 8.1 6.7a33 33 0 0 0 22.3.3c3.2-1.3 6-3 8.5-5.1l-4.5-10.6c-1.8 1.8-3.7 3.2-5.9 4.2s-4.8 1.5-7.7 1.5c-3.5 0-6.2-.9-8.3-2.8-2.2-1.9-3.2-4.8-3.2-8.5V83.1h28.3V72.4h-28.3V50.3l-12.5 3.5v18.6h-15.5v10.7h15.5v47.7c.1 5 1.2 9 3.2 12.1ZM585 201.5a6 6 0 0 1-2.7.5c-1.5 0-2.7-.4-3.6-1.3a5.7 5.7 0 0 1-1.3-3.9v-17.6h10.1v-2.6h-10.1V169l-2.7.8v6.8h-5.4v2.3h5.4v18c0 1.7.3 3.1.9 4.1s1.4 1.9 2.6 2.4c1 .5 2.3.8 3.7.8 1.3 0 2.4-.3 3.6-.6 1-.4 1.9-1 2.6-1.7l-1-1.9c-.6.6-1.3 1.2-2.1 1.5Zm9.9 2.3h2.7v-27.1h-2.7v27.1Zm-7.4-53.8H600V72.4h-12.5V150Zm8.7 16.9c-.7 0-1.3.2-1.7.6-.3.4-.6 1.1-.6 1.7 0 .7.2 1.3.6 1.7.4.3 1.1.6 1.7.6s1.3-.3 1.7-.6c.3-.4.6-1.1.6-1.7 0-.7-.2-1.3-.6-1.7-.4-.3-1.1-.6-1.7-.6Z"/>
</svg>